<?xml version="1.0" encoding="utf-8"?>
<!-- Generator: Adobe Illustrator 24.0.2, SVG Export Plug-In . SVG Version: 6.00 Build 0)  -->
<svg version="1.1" id="Layer_1" xmlns="http://www.w3.org/2000/svg" xmlns:xlink="http://www.w3.org/1999/xlink" x="0px" y="0px"
	 viewBox="0 0 512 512" style="enable-background:new 0 0 512 512;" xml:space="preserve">
<style type="text/css">
	.st0{fill:#020325;}
	.st1{fill:#F16724;}
	.st2{fill:#F29E26;}
	.st3{fill:#F37B24;}
	.st4{fill:#FFECE0;}
	.st5{fill:#9E6487;}
	.st6{fill:none;stroke:#FFFFFF;stroke-width:5;stroke-miterlimit:10;}
	.st7{fill:none;stroke:#FFFFFF;stroke-width:2;stroke-miterlimit:10;}
</style>
<path class="st0" d="M406.2823,469.8449c0,18.8148-15.1015,34.09-33.6957,34.09H139.5825c-18.6139,0-33.6788-15.2751-33.6788-34.09
	V41.5574c0-18.8149,15.0648-34.0722,33.6788-34.0722h233.0042c18.5942,0,33.6957,15.2573,33.6957,34.0722V469.8449z"/>
<g>
	<polygon class="st1" points="291.8064,297.2466 384.7812,347.4746 307.3304,275.6075 	"/>
	<polygon class="st2" points="294.5029,293.505 355.3304,326.3857 304.6432,279.3481 	"/>
	<polygon class="st1" points="228.3754,299.0437 135.3921,349.2717 212.8608,277.4046 	"/>
	<polygon class="st2" points="225.6891,295.3021 164.8242,328.1828 215.5386,281.1273 	"/>
	<polygon class="st3" points="238.7917,211.4789 257.5971,63.4538 276.3932,211.4789 	"/>
	<polygon class="st2" points="245.2917,211.4789 257.5971,114.5982 269.9016,211.4789 	"/>
	<polygon class="st3" points="208.3775,247.1096 103.5564,260.4234 208.3775,273.7362 	"/>
	<polygon class="st2" points="208.3775,251.7122 139.7749,260.4234 208.3775,269.1337 	"/>
	<polygon class="st1" points="227.367,217.3649 134.3922,167.1556 211.8524,239.0228 	"/>
	<polygon class="st2" points="224.6714,221.1065 163.843,188.2445 214.5302,235.2812 	"/>
	<polygon class="st1" points="290.8261,219.162 383.7906,168.9339 306.321,240.8199 	"/>
	<polygon class="st2" points="293.4936,222.9035 354.3586,190.0416 303.6442,237.0605 	"/>
	<polygon class="st3" points="305.4779,247.3293 408.6211,260.4234 305.4779,273.5165 	"/>
	<polygon class="st2" points="305.4779,251.8408 372.981,260.4234 305.4779,268.9872 	"/>
	<polygon class="st3" points="276.3932,305.6451 257.5971,453.6703 238.7917,305.6451 	"/>
	<polygon class="st2" points="269.9016,305.6451 257.5971,402.5249 245.2917,305.6451 	"/>
	<path class="st1" d="M312.2719,257.7644c0,30.1841-24.4812,54.6653-54.6747,54.6653c-30.2029,0-54.6841-24.4812-54.6841-54.6653
		c0-30.2029,24.4812-54.6663,54.6841-54.6663C287.7906,203.0981,312.2719,227.5615,312.2719,257.7644z"/>
	<circle class="st2" cx="257.5971" cy="257.7644" r="47.8808"/>
	<path class="st4" d="M257.5971,239.481c-14.2029,0-26.59,7.3723-33.229,18.2834c6.639,10.9111,19.0261,18.2646,33.229,18.2646
		c14.2208,0,26.5806-7.3535,33.229-18.2646C284.1777,246.8533,271.8179,239.481,257.5971,239.481z"/>
	<path class="st5" d="M269.9016,257.7644c0,6.8033-5.5105,12.3044-12.3044,12.3044c-6.8033,0-12.3054-5.5011-12.3054-12.3044
		c0-6.8034,5.502-12.3054,12.3054-12.3054C264.3911,245.459,269.9016,250.961,269.9016,257.7644z"/>
</g>
<path class="st6" d="M381.003,450.3512c0,17.183-12.5429,31.1193-28.0115,31.1193H159.1851
	c-15.477,0-28.0115-13.9362-28.0115-31.1193V59.2906c0-17.2009,12.5345-31.1193,28.0115-31.1193h193.8065
	c15.4686,0,28.0115,13.9184,28.0115,31.1193V450.3512z"/>
<path class="st7" d="M388.6777,456.9893c0,17.8985-13.3316,32.4225-29.7438,32.4225H153.2624
	c-16.431,0-29.7541-14.524-29.7541-32.4225V49.6452c0-17.9163,13.3232-32.4225,29.7541-32.4225h205.6715
	c16.4122,0,29.7438,14.5062,29.7438,32.4225V456.9893z"/>
<path class="st6" d="M139.7749,437.643c0,0,18.5482-1.4675,16.1925,16.0272c0,0,19.2918-3.2092,15.0827,17.476"/>
<path class="st6" d="M373.0542,439.8617c0,0-18.5585-1.4488-16.2019,16.0272c0,0-19.2918-3.2092-15.0921,17.4948"/>
<path class="st5" d="M151.7498,462.3806c0,2.8064-2.274,5.0983-5.0889,5.0983c-2.8149,0-5.0889-2.2919-5.0889-5.0983
	c0-2.8055,2.274-5.0795,5.0889-5.0795C149.4758,457.301,151.7498,459.5751,151.7498,462.3806z"/>
<path class="st5" d="M369.4873,464.6734c0,2.8055-2.274,5.0795-5.0889,5.0795c-2.8055,0-5.0795-2.274-5.0795-5.0795
	c0-2.8242,2.274-5.0983,5.0795-5.0983C367.2132,459.5751,369.4873,461.8491,369.4873,464.6734z"/>
<path class="st6" d="M140.957,76.7487c0,0,18.5585,1.4487,16.2112-16.046c0,0,19.2646,3.227,15.0648-17.4947"/>
<path class="st6" d="M374.2457,74.4925c0,0-18.5576,1.4854-16.2197-16.0084c0,0-19.2824,3.2092-15.0648-17.4769"/>
<path class="st5" d="M152.9413,51.9925c0-2.8242-2.274-5.0983-5.0983-5.0983c-2.7961,0-5.0795,2.274-5.0795,5.0983
	c0,2.8055,2.2834,5.0795,5.0795,5.0795C150.6673,57.072,152.9413,54.7979,152.9413,51.9925z"/>
<path class="st5" d="M370.6703,49.7184c0-2.8242-2.274-5.0983-5.0804-5.0983c-2.8055,0-5.088,2.274-5.088,5.0983
	c0,2.8055,2.2825,5.0795,5.088,5.0795C368.3962,54.7979,370.6703,52.5239,370.6703,49.7184z"/>
</svg>
